name C:\Users\Nicos\Documents\OpenSimProjects\SprintingProject\Study1\PredictiveResults\IC_pred_Sprinting_optimum_28-October-2023__09-53-48___HTD_Minus_6_p02_maxVel_01.mot
datacolumns 38
datarows 10
range 0.15434012 0.16281723
endheader
                time	/jointset/ground_pelvis/pelvis_tilt/value	/jointset/ground_pelvis/pelvis_list/value	/jointset/ground_pelvis/pelvis_rotation/value	/jointset/ground_pelvis/pelvis_tx/value	/jointset/ground_pelvis/pelvis_ty/value	/jointset/ground_pelvis/pelvis_tz/value	/jointset/hip_r/hip_flexion_r/value	/jointset/hip_r/hip_adduction_r/value	/jointset/hip_r/hip_rotation_r/value	/jointset/knee_r/knee_angle_r/value	/jointset/ankle_r/ankle_angle_r/value	/jointset/subtalar_r/subtalar_angle_r/value	/jointset/mtp_r/mtp_angle_r/value	/jointset/hip_l/hip_flexion_l/value	/jointset/hip_l/hip_adduction_l/value	/jointset/hip_l/hip_rotation_l/value	/jointset/knee_l/knee_angle_l/value	/jointset/ankle_l/ankle_angle_l/value	/jointset/subtalar_l/subtalar_angle_l/value	/jointset/mtp_l/mtp_angle_l/value	/jointset/back/lumbar_extension/value	/jointset/back/lumbar_bending/value	/jointset/back/lumbar_rotation/value	/jointset/acromial_r/arm_flex_r/value	/jointset/acromial_r/arm_add_r/value	/jointset/acromial_r/arm_rot_r/value	/jointset/elbow_r/elbow_flex_r/value	/jointset/radioulnar_r/pro_sup_r/value	/jointset/radius_hand_r/wrist_flex_r/value	/jointset/radius_hand_r/wrist_dev_r/value	/jointset/acromial_l/arm_flex_l/value	/jointset/acromial_l/arm_add_l/value	/jointset/acromial_l/arm_rot_l/value	/jointset/elbow_l/elbow_flex_l/value	/jointset/radioulnar_l/pro_sup_l/value	/jointset/radius_hand_l/wrist_flex_l/value	/jointset/radius_hand_l/wrist_dev_l/value	
          0.15434012	         -6.41199326	          5.50274220	        -13.34236524	          1.08538395	          0.98038163	          0.30756082	          4.15658252	        -10.84946407	          9.91981104	        -64.56383849	        -26.67980631	         -9.21050616	         -9.01109411	         78.74388060	         -6.30879974	         -1.14399640	        -87.11167006	         16.14229620	        -22.36149386	          2.65911567	        -17.06712945	         -6.11676180	          9.09799048	         74.51726706	         -4.05968444	         -0.00150433	         93.43800073	         84.26321668	         11.54296869	          7.64246549	        -74.10317478	         -1.12932505	         -0.19749101	         83.89757643	         74.64310368	         11.95458529	          7.06372767	
          0.15495002	         -6.38779290	          5.49329713	        -13.23935309	          1.09182458	          0.98074677	          0.30758026	          4.12931143	        -10.82724487	          9.90045232	        -64.89967172	        -26.76711803	         -9.11041079	         -8.91522058	         78.58632779	         -6.27134346	         -1.18160772	        -86.33490472	         15.99395638	        -22.22056446	          2.94268122	        -17.15630752	         -6.15325976	          9.05427987	         74.54960987	         -4.30399705	         -0.00650481	         92.72732325	         84.34420297	         11.51189899	          7.62837621	        -73.99400100	         -1.26204267	         -0.24258948	         83.48455162	         74.76684033	         11.89655580	          7.05631288	
          0.15687709	         -6.27898947	          5.45733841	        -12.91943840	          1.11217273	          0.98196779	          0.30765903	          4.01959135	        -10.75280240	          9.83721650	        -65.95071989	        -26.97934309	         -8.83944575	         -8.62552777	         78.01008046	         -6.14835810	         -1.29911487	        -83.86606718	         15.50421276	        -21.72967199	          3.87550110	        -17.47932043	         -6.27384858	          8.93165963	         74.61482100	         -5.11118913	         -0.04686594	         90.54691175	         84.53043347	         11.40277497	          7.57711811	        -73.61975631	         -1.70598767	         -0.42852139	         82.24238309	         75.11056985	         11.70830149	          7.03042677	
          0.15827372	         -6.17150931	          5.42752181	        -12.69528500	          1.12691998	          0.98291118	          0.30773668	          3.92211232	        -10.69603338	          9.79125711	        -66.70485212	        -27.08174225	         -8.71150329	         -8.43393638	         77.52210892	         -6.05660090	         -1.38354156	        -82.06779890	         15.12836757	        -21.33846362	          4.58062991	        -17.74895313	         -6.36838201	          8.85935096	         74.62312967	         -5.72080507	         -0.11574410	         89.02836371	         84.60463823	         11.31352231	          7.53742683	        -73.32368814	         -2.04955756	         -0.61033984	         81.40309931	         75.30705391	         11.56805687	          7.00730668	
          0.15827372	         -6.17150931	          5.42752181	        -12.69528500	          1.12691998	          0.98291118	          0.30773668	          3.92211232	        -10.69603338	          9.79125711	        -66.70485212	        -27.08174225	         -8.71150329	         -8.43393638	         77.52210892	         -6.05660090	         -1.38354156	        -82.06779890	         15.12836757	        -21.33846362	          4.58062991	        -17.74895313	         -6.36838201	          8.85935096	         74.62312967	         -5.72080507	         -0.11574410	         89.02836371	         84.60463823	         11.31352231	          7.53742683	        -73.32368814	         -2.04955756	         -0.61033984	         81.40309931	         75.30705391	         11.56805687	          7.00730668	
          0.15888363	         -6.11755926	          5.41401148	        -12.59995184	          1.13336060	          0.98333720	          0.30777690	          3.87588580	        -10.67079292	          9.77158644	        -67.03263843	        -27.11517969	         -8.67907790	         -8.35629664	         77.29154990	         -6.01618764	         -1.42028832	        -81.28137223	         14.95853559	        -21.16037535	          4.89514557	        -17.87515552	         -6.41202656	          8.83249216	         74.61560942	         -5.99149555	         -0.15957164	         88.38146033	         84.62258897	         11.27194664	          7.52030224	        -73.18855962	         -2.20494683	         -0.70355366	         81.05290816	         75.37837956	         11.50596171	          6.99591526	
          0.16081069	         -5.92712149	          5.37799768	        -12.31183236	          1.15371322	          0.98472446	          0.30793441	          3.72883382	        -10.59659670	          9.71446702	        -68.06630215	        -27.18951889	         -8.68277735	         -8.14136776	         76.50354992	         -5.88773807	         -1.54163902	        -78.79535858	         14.39728396	        -20.58195306	          5.90840803	        -18.29565922	         -6.56784738	          8.76709819	         74.53933030	         -6.84942243	         -0.38296113	         86.40253739	         84.61972086	         11.12972002	          7.46494306	        -72.74231843	         -2.71452813	         -1.06350838	         80.01149806	         75.53848690	         11.30690348	          6.95362049	
          0.16220732	         -5.77477639	          5.36258880	        -12.11546641	          1.16846913	          0.98576014	          0.30807693	          3.62813645	        -10.55200603	          9.67927901	        -68.81551282	        -27.21891967	         -8.77271078	         -8.01484028	         75.88268061	         -5.79201494	         -1.63614100	        -76.99572098	         13.96712562	        -20.15899694	          6.65822747	        -18.61435436	         -6.70130312	          8.73738972	         74.43083126	         -7.47163253	         -0.63202017	         85.03002209	         84.56179976	         11.01658875	          7.42449547	        -72.40094399	         -3.10763884	         -1.37233006	         79.31842891	         75.59908533	         11.16012449	          6.91938661	
          0.16220732	         -5.77477639	          5.36258880	        -12.11546641	          1.16846913	          0.98576014	          0.30807693	          3.62813645	        -10.55200603	          9.67927901	        -68.81551282	        -27.21891967	         -8.77271078	         -8.01484028	         75.88268061	         -5.79201494	         -1.63614100	        -76.99572098	         13.96712562	        -20.15899694	          6.65822747	        -18.61435436	         -6.70130312	          8.73738972	         74.43083126	         -7.47163253	         -0.63202017	         85.03002209	         84.56179976	         11.01658875	          7.42449547	        -72.40094399	         -3.10763884	         -1.37233006	         79.31842891	         75.59908533	         11.16012449	          6.91938661	
          0.16281723	         -5.70554925	          5.35960926	        -12.03290770	          1.17491522	          0.98621831	          0.30814629	          3.58723691	        -10.53578274	          9.66583710	        -69.14314416	        -27.22652998	         -8.83107991	         -7.96731140	         75.60006612	         -5.74898029	         -1.67933179	        -76.21123976	         13.77319527	        -19.97600931	          6.98926838	        -18.75566325	         -6.76566674	          8.72883162	         74.36872407	         -7.74335072	         -0.76457222	         84.44689604	         84.52260941	         10.96463536	          7.40704033	        -72.24709350	         -3.28735842	         -1.51537552	         79.03200706	         75.61365924	         11.09537755	          6.90431839	
